<svg xmlns="http://www.w3.org/2000/svg" width="161.858" height="192.891" viewBox="0 0 161.858 192.891">
  <path id="Path_7" data-name="Path 7" d="M2141.479,1536.609c33.214.89,56.642.593,69.691,12.752,6.322,6.639,8.321,10.886,9.232,13.53a6.533,6.533,0,0,1,.553,2.484V1684s-6.82,14.828-15.124,18.091-55.16,16.311-55.16,16.311-7.414,2.076-12.456,0-59.608-19.277-59.608-19.277-9.49-6.228-9.49-15.125V1565.375a8.149,8.149,0,0,1,.3-2.7c1.138-3.049,4.911-10.462,9.187-13.312C2083.948,1545.8,2108.265,1535.719,2141.479,1536.609Z" transform="translate(-2064.102 -1531.551)" fill="#fff" stroke="#f7f6f6" stroke-width="10"/>
</svg>
