<svg xmlns="http://www.w3.org/2000/svg" width="969.662" height="806.472" viewBox="0 0 969.662 806.472">
  <g id="undraw_personalization_triu" transform="translate(0.004 0.002)">
    <path id="Path_152" data-name="Path 152" d="M658.608,137.179C596.445,135.018,537.24,114.953,480.705,93S368.174,46.71,307.5,35.078C268.474,27.6,223.84,26.54,192.4,47.459c-30.265,20.17-40.043,54.892-45.3,87.146-3.957,24.262-6.282,49.8,4.553,72.508,7.53,15.771,20.881,29.026,30.121,44.135,32.148,52.558,9.422,117.372-25.405,168.692-16.328,24.08-35.3,47.064-47.909,72.671S90.024,547.6,101.06,573.743c10.93,25.933,36.989,45.374,65.218,59.061,57.332,27.806,124.864,35.759,190.764,40.264,145.832,9.98,292.432,5.657,438.649,1.335,54.114-1.6,108.459-3.227,161.69-11.593,29.564-4.649,60.079-12.016,81.546-29.823,27.24-22.6,33.992-60.867,15.733-89.211-30.621-47.535-115.26-59.339-136.688-110.351-11.776-28.085.317-59.359,17.443-85.407,36.729-55.862,98.288-104.876,101.524-168.73,2.228-43.856-27.364-87.78-73.122-108.536C915.857,49.006,849.343,51.733,813.978,87.742,777.527,124.818,713.5,139.081,658.608,137.179Z" transform="translate(-95.23 -30.18)" fill="#4285f4" opacity="0.1"/>
    <ellipse id="Ellipse_14" data-name="Ellipse 14" cx="291.962" cy="39.496" rx="291.962" ry="39.496" transform="translate(172.428 710.641)" fill="#4285f4" opacity="0.1"/>
    <path id="Path_153" data-name="Path 153" d="M428.24,688.737s20.17-3.227,32.272,11.027c0,0-8.875,6.992-27.97-2.69Z" transform="translate(-108.386 -56.184)" fill="#4285f4"/>
    <path id="Path_154" data-name="Path 154" d="M425.659,688.42s-12.871,15.925-6.561,33.473c0,0,10.489-4.2,11.632-25.578Z" transform="translate(-107.956 -56.184)" fill="#4285f4"/>
    <path id="Path_155" data-name="Path 155" d="M414,661.1s8.068-14.792,40.341,5.916c0,0-4.3,9.95-18.557,9.144S417.717,668.9,414,661.1Z" transform="translate(-107.823 -54.903)" fill="#4285f4"/>
    <path id="Path_156" data-name="Path 156" d="M411.035,660.2s-16.742-1.921-18.365,36.4c0,0,10.613,2.209,18.154-9.922S415.242,667.769,411.035,660.2Z" transform="translate(-106.98 -55.069)" fill="#4285f4"/>
    <path id="Path_157" data-name="Path 157" d="M401.63,627.8s9.413-26.1,43.577-7.54c0,0-7.8,23.945-40.081,16.415Z" transform="translate(-107.335 -53.228)" fill="#4285f4"/>
    <path id="Path_158" data-name="Path 158" d="M390.71,587.265s17.75-26.357,49.226-1.922c0,0-11.027,24.743-46.536,11.3Z" transform="translate(-106.903 -51.702)" fill="#4285f4"/>
    <path id="Path_159" data-name="Path 159" d="M386.79,548.688s20.708-24.2,51.867,0c0,0-19.642,21.246-51.867,6.185Z" transform="translate(-106.749 -50.239)" fill="#4285f4"/>
    <path id="Path_160" data-name="Path 160" d="M383.43,511.131s20.977-25.29,50.839-1.345c0,0-23.676,22.322-50.839,7.261Z" transform="translate(-106.616 -48.72)" fill="#4285f4"/>
    <path id="Path_161" data-name="Path 161" d="M385.39,477.533s22.092-32.542,50.032-10.488c0,0-23.676,27.979-50.032,16.674Z" transform="translate(-106.693 -47.135)" fill="#4285f4"/>
    <path id="Path_162" data-name="Path 162" d="M390.71,438.666s23.4-32.273,50.57-7.53c0,0-27.71,27.97-50.57,13.447Z" transform="translate(-106.903 -45.651)" fill="#4285f4"/>
    <path id="Path_163" data-name="Path 163" d="M398.79,403.7s27.691-30.323,51.867-18.25c0,0-28.873,32.206-53.077,26.289Z" transform="translate(-107.175 -44.103)" fill="#4285f4"/>
    <path id="Path_164" data-name="Path 164" d="M408.817,370.478s32.013-37.123,50.57-24.752c0,0-23.551,28.815-52.827,31.745Z" transform="translate(-107.529 -42.546)" fill="#4285f4"/>
    <path id="Path_165" data-name="Path 165" d="M423.306,332.353s27.989-30.332,48.428-22.8c0,0-23.935,31.475-52.184,32.283Z" transform="translate(-108.043 -41.169)" fill="#4285f4"/>
    <path id="Path_166" data-name="Path 166" d="M436.584,296.551s30.928-29.045,44.375-23.936c0,0-22.322,32.273-45.719,30.39Z" transform="translate(-108.662 -39.734)" fill="#4285f4"/>
    <path id="Path_167" data-name="Path 167" d="M449.52,263.2s26.625-34.693,41.147-32c0,0-16.136,30.928-41.147,35.538Z" transform="translate(-109.227 -38.115)" fill="#4285f4"/>
    <path id="Path_168" data-name="Path 168" d="M463.451,218.908S486.992,192.3,499.7,192.37c0,0-18.576,35.538-37.21,35.212Z" transform="translate(-109.739 -36.587)" fill="#4285f4"/>
    <path id="Path_169" data-name="Path 169" d="M471.661,188.031l22.725-55.4s1.143,50.08-25.626,65.679Z" transform="translate(-109.987 -34.227)" fill="#4285f4"/>
    <path id="Path_170" data-name="Path 170" d="M481.374,124.643s3.765-46.257,1.344-50.023c0,0,16.261,38.42-1.5,70.462Z" transform="translate(-110.478 -31.936)" fill="#4285f4"/>
    <path id="Path_171" data-name="Path 171" d="M399.123,627.609S375.543,613,360.29,648.739c0,0,20.977,13.927,41.6-12.015Z" transform="translate(-105.701 -53.665)" fill="#4285f4"/>
    <path id="Path_172" data-name="Path 172" d="M388.164,586.128s-28.91-13.188-42.943,24.128c0,0,22.341,15.367,45.575-14.7Z" transform="translate(-105.106 -52.054)" fill="#4285f4"/>
    <path id="Path_173" data-name="Path 173" d="M383.257,551s-20.708-24.2-51.867,0c0,0,19.633,21.246,51.867,6.185Z" transform="translate(-104.56 -50.33)" fill="#4285f4"/>
    <path id="Path_174" data-name="Path 174" d="M380.609,511.131s-20.987-25.29-50.839-1.345c0,0,23.666,22.322,50.839,7.261Z" transform="translate(-104.496 -48.72)" fill="#4285f4"/>
    <path id="Path_175" data-name="Path 175" d="M383.47,478.225s-14.715-36.451-46.7-20.776c0,0,17.289,32.33,45.4,26.827Z" transform="translate(-104.772 -46.905)" fill="#4285f4"/>
    <path id="Path_176" data-name="Path 176" d="M390.7,438.165s-14.619-37.085-47.064-19.892c0,0,19.863,33.992,45.624,25.626Z" transform="translate(-105.044 -45.332)" fill="#4285f4"/>
    <path id="Path_177" data-name="Path 177" d="M400.739,402.947s-5.763-40.667-32.609-44.307c0,0,5.7,42.876,29.026,51.627Z" transform="translate(-106.011 -43.156)" fill="#4285f4"/>
    <path id="Path_178" data-name="Path 178" d="M408.623,369.586S406.366,320.6,384.13,318.9c0,0,.749,37.171,21.986,57.63Z" transform="translate(-106.643 -41.586)" fill="#4285f4"/>
    <path id="Path_179" data-name="Path 179" d="M424.725,330s-6.637-40.725-27.854-45.71c0,0,2.632,39.448,25.751,55.709Z" transform="translate(-107.146 -40.219)" fill="#4285f4"/>
    <path id="Path_180" data-name="Path 180" d="M438.641,295.869s-.23-42.435-13.2-48.668c0,0-8.04,38.42,9.441,54.085Z" transform="translate(-108.203 -38.754)" fill="#4285f4"/>
    <path id="Path_181" data-name="Path 181" d="M449.9,261.949s-1.824-43.7-15.243-49.859c0,0-4.6,34.578,13.226,52.712Z" transform="translate(-108.619 -37.366)" fill="#4285f4"/>
    <path id="Path_182" data-name="Path 182" d="M464.923,221.8s-.087-35.538-9.672-43.876c0,0-9.528,38.939,4.668,51.021Z" transform="translate(-109.329 -36.017)" fill="#4285f4"/>
    <path id="Path_183" data-name="Path 183" d="M470.07,186.057,460.753,126.9s-12.678,48.476,9.759,69.828Z" transform="translate(-109.529 -34.001)" fill="#4285f4"/>
    <path id="Path_184" data-name="Path 184" d="M471.535,125.463S447.59,85.708,448.09,81.28c0,0,2.535,41.685,32.657,62.432Z" transform="translate(-109.17 -32.199)" fill="#4285f4"/>
    <path id="Path_185" data-name="Path 185" d="M474.071,112.549S451.48,56.062,441.26,51.49c0,0,32.273,16.405,34.693,59.445Z" transform="translate(-108.9 -31.022)" fill="#4285f4"/>
    <path id="Path_186" data-name="Path 186" d="M462.3,224.686l-1.546-.471c19.066-62.173,23.83-101.813,13.4-111.744l1.114-1.172C486.309,121.779,481.833,160.958,462.3,224.686Z" transform="translate(-109.67 -33.385)" fill="#444053"/>
    <path id="Path_187" data-name="Path 187" d="M407.607,374.7l-2.277-.807c2.017-5.7,4.2-11.478,6.484-17.183,19.9-49.6,36.844-95.733,47.708-131.156l1.988-.96c-10.883,35.49-27.518,83.4-47.448,133.057C411.784,363.3,409.614,369.058,407.607,374.7Z" transform="translate(-107.48 -37.86)" fill="#444053"/>
    <path id="Path_188" data-name="Path 188" d="M454.757,722.9c-.308-.346-31.216-35.135-52.75-94.551a350.014,350.014,0,0,1-20.843-108.3C379.685,473.819,389.386,422.2,406,375.32l1.806,2.113c-37.3,105.232-22.476,195.413-2.824,249.729,21.323,58.869,51.867,93.293,52.174,93.629Z" transform="translate(-106.52 -43.815)" fill="#444053"/>
    <rect id="Rectangle_33" data-name="Rectangle 33" width="8.51" height="70.135" rx="2.29" transform="translate(617.406 278.371)" fill="#3a3768"/>
    <rect id="Rectangle_34" data-name="Rectangle 34" width="4.774" height="23.09" rx="2.29" transform="translate(334.607 223.421)" fill="#3a3768"/>
    <rect id="Rectangle_35" data-name="Rectangle 35" width="5.379" height="40.187" rx="2.29" transform="translate(334.435 265.702)" fill="#3a3768"/>
    <rect id="Rectangle_36" data-name="Rectangle 36" width="5.119" height="40.533" rx="2.29" transform="translate(334.521 319.95)" fill="#3a3768"/>
    <rect id="Rectangle_37" data-name="Rectangle 37" width="284.691" height="578.593" rx="38.99" transform="translate(337.306 147.119)" fill="#3a3768"/>
    <path id="Path_189" data-name="Path 189" d="M691.666,199H659.009v3.928a18.614,18.614,0,0,1-18.624,18.614H536.527A18.615,18.615,0,0,1,517.9,202.928V199H487.33a22.61,22.61,0,0,0-22.61,22.61v503.27a22.61,22.61,0,0,0,22.61,22.61H691.666a22.61,22.61,0,0,0,22.611-22.61V221.649A22.61,22.61,0,0,0,691.666,199Z" transform="translate(-109.827 -36.849)" fill="#fff"/>
    <rect id="Rectangle_38" data-name="Rectangle 38" width="39.755" height="8.068" rx="3.87" transform="translate(452.191 164.398)" fill="#e6e8ec"/>
    <circle id="Ellipse_15" data-name="Ellipse 15" cx="4.582" cy="4.582" r="4.582" transform="translate(497.959 163.851)" fill="#e6e8ec"/>
    <path id="Path_190" data-name="Path 190" d="M842.464,156.926s-80.874-4.879-71.346,51.79c0,0-1.921,10.018,7.185,14.561,0,0,.144-4.2,8.3-2.766a37.945,37.945,0,0,0,8.789.423,18.31,18.31,0,0,0,10.739-4.389h0S828.863,207.15,837.7,170c0,0,6.541-8.107,6.281-10.191l-13.649,5.83s4.668,9.845.961,18.029c0,0-.442-17.673-3.064-17.289-.528.077-7.088,3.41-7.088,3.41s8.02,17.145,1.969,29.612c0,0,2.3-21.131-4.476-28.373l-9.6,5.609s9.374,17.711,3.016,32.167c0,0,1.633-22.168-5.043-30.8l-8.7,6.791s8.808,17.452,3.439,29.439c0,0-.7-25.8-5.321-27.749,0,0-7.617,6.723-8.779,9.47,0,0,6.031,12.679,2.285,19.364,0,0-2.3-17.193-4.178-17.289,0,0-7.588,11.391-8.375,19.21,0,0,.326-11.613,6.541-20.286,0,0-7.339,1.258-11.623,6.013,0,0,1.182-8.049,13.5-8.76,0,0,6.272-8.644,7.943-9.163,0,0-12.236-1.028-19.661,2.267,0,0,6.531-7.6,21.908-4.14l8.6-7.021s-16.116-2.2-22.955.231c0,0,7.866-6.724,25.271-1.825l9.355-5.59S802.5,166,794.314,167.04c0,0,8.644-4.659,24.675.394l6.723-3.006s-10.066-1.979-13.014-2.3-3.1-1.124-3.1-1.124a34.913,34.913,0,0,1,18.912,2.1S842.7,157.819,842.464,156.926Z" transform="translate(-121.9 -35.183)" fill="#4285f4"/>
    <path id="Path_191" data-name="Path 191" d="M757.72,130.688s-36.5-2.2-32.235,23.407c0,0-.855,4.524,3.247,6.579,0,0,.067-1.921,3.755-1.258a16.813,16.813,0,0,0,3.967.192,8.222,8.222,0,0,0,4.85-2h0s10.277-4.245,14.273-21.035c0,0,2.948-3.66,2.833-4.6l-6.166,2.632s2.1,4.447.451,8.145c0,0-.2-7.982-1.382-7.8-.24,0-3.209,1.546-3.209,1.546s3.631,7.751.893,13.38c0,0,1.038-9.547-2.027-12.823l-4.341,2.574s4.236,8,1.364,14.532c0,0,.74-10.018-2.276-13.918l-3.929,3.074s3.976,7.886,1.555,13.3c0,0-.326-11.66-2.41-12.544,0,0-3.439,3.035-3.967,4.284,0,0,2.728,5.763,1.038,8.75,0,0-1.038-7.77-1.921-7.809,0,0-3.429,5.148-3.784,8.644a18.742,18.742,0,0,1,2.958-9.163A10.329,10.329,0,0,0,726,151.5s.538-3.64,6.1-3.957c0,0,2.881-3.909,3.592-4.149,0,0-5.532-.461-8.885,1.028,0,0,2.948-3.429,9.893-1.873l3.842-3.17s-7.291-.961-10.374.106c0,0,3.554-3.035,11.421-.826l4.226-2.526s-6.214-1.335-9.912-.855c0,0,3.909-2.1,11.151.173l3.026-1.355s-4.553-.893-5.887-1.037-1.4-.509-1.4-.509a15.74,15.74,0,0,1,8.548.961S757.835,131.091,757.72,130.688Z" transform="translate(-120.115 -34.149)" fill="#4285f4"/>
    <rect id="Rectangle_39" data-name="Rectangle 39" width="198.774" height="421.888" transform="translate(380.269 217.245)" opacity="0.1"/>
    <path id="Path_193" data-name="Path 193" d="M436.106,767.793l-19.315,1.921-.538-6.465-.374-4.446-.529-6.5,18.25.96,1.45,8.347.307,1.816h.01Z" transform="translate(-16.409 -29.72)" fill="#8e6f7f"/>
    <path id="Path_194" data-name="Path 194" d="M582.556,753.31l-.528,6.493-.365,4.447-.547,6.464-19.326-1.921.769-4.371.3-1.8,1.45-8.347Z" transform="translate(-22.194 -29.76)" fill="#8e6f7f"/>
    <path id="Path_195" data-name="Path 195" d="M652.388,684.313l-57.437,2.7q-3.919.191-7.838,0l-54.873-2.69V640.85H652.388Z" transform="translate(-112.494 -54.305)" fill="#5f5570"/>
    <path id="Path_196" data-name="Path 196" d="M652.388,684.313l-57.437,2.7q-3.919.191-7.838,0l-54.873-2.69V640.85H652.388Z" transform="translate(-112.494 -54.305)" opacity="0.1"/>
    <path id="Path_197" data-name="Path 197" d="M578.709,518.91s-19.133,6.426-26.337,11.709c-1.5,1.1-2.881,2-4.092,2.737a23.434,23.434,0,0,0-9.672,11.8c-.048.134-.1.249-.144.355-.961,2.161-5.523,16.808-5.523,16.808s-3.361,8.165-3.842,13.447,27.375,19.45,27.375,19.45-13.448,29.3-7.444,36.739,93.648,11.046,91.727,0-5.283-29.3-3.6-34.337L666.93,576s-1.2-30.255-10.565-38.18-21.131-10.805-21.131-10.805l-18.643-4.8s-6.57,16.328-13.773,18.489S579.833,532.885,578.709,518.91Z" transform="translate(-112.37 -49.487)" fill="#eaeaf2"/>
    <path id="Path_198" data-name="Path 198" d="M607.821,547.54s-8.126,6.781-12.391,0c0,0-3.841,11.468,0,15.31l-.144.778-.682,3.42-8.894,73.958,7.319,12.63,13.323-16.712-1.076-69.156-.481-3.967-.115-.96h2.276S613,552.4,607.821,547.54Z" transform="translate(-114.607 -50.618)" opacity="0.1"/>
    <path id="Path_199" data-name="Path 199" d="M609.82,547.54s-8.126,6.781-12.39,0c0,0-3.842,11.468,0,15.31l-.145.778-.681,3.42-8.894,73.958,7.318,12.63,13.323-16.712-1.076-69.156-.481-3.967-.115-.96h2.276S615,552.4,609.82,547.54Z" transform="translate(-114.686 -50.618)" opacity="0.1"/>
    <path id="Path_200" data-name="Path 200" d="M512.12,606.255,498.8,622.939l-7.338-12.563,8.9-74,.682-3.419.154-.787,1.2-3.112,8.049,3.112.115.96.48,3.967Z" transform="translate(-19.415 -20.901)" fill="#bc8487"/>
    <path id="Path_201" data-name="Path 201" d="M530.28,791.778a65.3,65.3,0,0,1-12.343-1.258c-2.007-.5-4.524-1.057-6.82-1.546l-.538-6.5,18.249.961Z" transform="translate(-111.639 -59.9)" opacity="0.1"/>
    <path id="Path_203" data-name="Path 203" d="M531.383,798.413l-19.325,1.921-.548-6.464a5.754,5.754,0,0,1,2.1.461c3.525,2.536,13.6.519,17.01-.288h0Z" transform="translate(-111.675 -60.35)" opacity="0.1"/>
    <path id="Path_205" data-name="Path 205" d="M677.84,783.48l-.538,6.493c-2.3.49-4.8,1.047-6.829,1.546a65.409,65.409,0,0,1-12.333,1.268l1.451-8.347Z" transform="translate(-117.468 -59.939)" opacity="0.1"/>
    <path id="Path_207" data-name="Path 207" d="M676.893,794.87l-.538,6.465-19.335-1.922.768-4.369c3.41.816,13.447,2.823,17,.288A5.768,5.768,0,0,1,676.893,794.87Z" transform="translate(-117.423 -60.389)" opacity="0.1"/>
    <path id="Path_209" data-name="Path 209" d="M622.048,526.643,602.656,547.2l-.538.576-.7-.413c-4.053-2.4-24.329-14.638-22.591-18.317.961-2.094,1.528-6.455,1.825-10.21,0-.452.058-.894.1-1.326.192-2.968.24-5.273.24-5.273s36.5-6.243,35.058,0c-.586,2.526.288,5.369,1.527,7.857.365.72.768,1.4,1.162,2.045A31.706,31.706,0,0,0,622.048,526.643Z" transform="translate(-114.33 -49.115)" fill="#ffc4d0"/>
    <path id="Path_210" data-name="Path 210" d="M617.655,520.093a28.479,28.479,0,0,1-36.825-2.584c.192-2.969.24-5.274.24-5.274s36.5-6.243,35.059,0C615.571,514.782,616.416,517.606,617.655,520.093Z" transform="translate(-114.414 -49.114)" opacity="0.1"/>
    <path id="Path_211" data-name="Path 211" d="M628.9,494.468a28.5,28.5,0,0,1-56.9,2.709q-.116-1.345-.116-2.709a28.5,28.5,0,1,1,56.991,0Z" transform="translate(-114.061 -47.396)" fill="#ffc4d0"/>
    <path id="Path_212" data-name="Path 212" d="M628.543,489.9a6.819,6.819,0,0,1-5.359,1.45c-4.4-.96-5.907-7.684-10.4-8.145s-7.482,5.763-12.035,5.638c-1.921-.048-3.65-1.306-5.417-2.18-3.093-1.527-8.183-2.459-11.526-1.307-5.023,1.72-6.723,6.369-9.931,10.067a14.692,14.692,0,0,1-1.8,1.738q-.116-1.344-.116-2.708a28.5,28.5,0,0,1,56.669-4.553Z" transform="translate(-114.064 -47.385)" opacity="0.1"/>
    <path id="Path_213" data-name="Path 213" d="M595.011,484.947c1.767.864,3.457,2.132,5.417,2.18,4.543.115,7.51-6.138,12.025-5.647s6,7.156,10.421,8.145c2.969.672,5.763-1.546,7.982-3.611a12.722,12.722,0,0,0,3.429-4.217c.961-2.382.461-5.129-.432-7.549s-2.152-4.745-2.594-7.29c-.537-3.054.087-6.4-1.364-9.144a8.094,8.094,0,0,0-5.705-3.938,13.449,13.449,0,0,0-7.04.8,9.971,9.971,0,0,1-3.468.96,7.338,7.338,0,0,1-2.544-.624,37.572,37.572,0,0,1-7.857-4.236,36.83,36.83,0,0,0-5.6-3.688,7.55,7.55,0,0,0-6.474-.259c-3.458,1.768-4.121,6.724-7.338,8.865-2.219,1.5-5.11,1.345-7.78,1.451s-5.763.749-7.031,3.083c-1.134,2.008-.566,4.476-.422,6.772a17.389,17.389,0,0,1-1.066,7.108c-1.488,3.977-4.515,7.9-3.439,12.006.7,2.7,3.121,4.937,2.977,7.684a14.739,14.739,0,0,0-.182,2.142,1.584,1.584,0,0,0,1.259,1.537,1.914,1.914,0,0,0,1.075-.346A16.06,16.06,0,0,0,573.5,493.7c3.247-3.707,4.927-8.346,9.951-10.066C586.837,482.508,591.918,483.411,595.011,484.947Z" transform="translate(-113.746 -46.616)" fill="#8e6f7f"/>
    <path id="Path_214" data-name="Path 214" d="M628.923,660.563l-5.187,1.412-11.977,3.294a28.934,28.934,0,0,1-9.211,4.582c-7.328,1.854-12.064-2.181-16-8.424-1.584-2.5-.788-4.495,1.287-6.061,4.994-3.774,17.346-5,21.13-4.5a15.817,15.817,0,0,0,7.291-1.133,28.234,28.234,0,0,0,4.716-2.229Z" transform="translate(-114.607 -54.568)" fill="#ffc4d0"/>
    <path id="Path_215" data-name="Path 215" d="M630.181,660.562l-5.187,1.412c-1.488-4.486-3.938-10.114-7.444-12.276a28.223,28.223,0,0,0,4.716-2.228Z" transform="translate(-115.864 -54.566)" opacity="0.1"/>
    <path id="Path_216" data-name="Path 216" d="M665.338,647.988c-2.152,1.739-3.977,3.324-3.977,3.324s-24.973,7.828-29.775,17.673c0,0-3.842-19.21-12.006-19.451,0,0,8.789-3.448,11.325-6.4l24.617-1.287A114.006,114.006,0,0,1,665.338,647.988Z" transform="translate(-115.945 -54.344)" opacity="0.1"/>
    <path id="Path_217" data-name="Path 217" d="M664.885,569.85l5.523,8.164,1.681,25.453s.48,24.492,0,25.454l.48-.961s-.96,9.6-3.842,11.286-9.365,7.3-9.365,7.3-24.973,7.829-29.775,17.674c0,0-3.842-19.21-12.006-19.451,0,0,12.247-4.8,12.006-7.924,0,0,9.365-8.4,10.085-10.566s5.4-2.4,5.4-2.4,1.085-14.888-1.077-17.289-3.361-6.964-3.361-6.964Z" transform="translate(-115.866 -51.5)" fill="#eaeaf2"/>
    <path id="Path_218" data-name="Path 218" d="M602.547,670.144c-7.328,1.854-12.064-2.18-16-8.423-1.584-2.5-.788-4.5,1.287-6.061l.75.3S601.789,661.682,602.547,670.144Z" transform="translate(-114.607 -54.89)" opacity="0.1"/>
    <path id="Path_219" data-name="Path 219" d="M598.544,677.688c-8.645,12.006-24.733-4.686-25.933-8.049-.432-1.22-2.075-2.3-3.967-3.179a42.884,42.884,0,0,0-7.444-2.468l14.292-11.641,2.737,1.1,8.424,3.371S607.189,665.682,598.544,677.688Z" transform="translate(-113.639 -54.759)" fill="#ffc4d0"/>
    <path id="Path_220" data-name="Path 220" d="M578.229,653.445c-7.876,3.746-9.557,9.134-9.6,13.014a42.88,42.88,0,0,0-7.444-2.468l14.292-11.641Z" transform="translate(-113.637 -54.759)" opacity="0.1"/>
    <path id="Path_221" data-name="Path 221" d="M564.27,673.747s-23.052-18.25-34.1-26.174a27.055,27.055,0,0,1-3.842-3.323c3.266-2.055,5.706-3.4,5.706-3.4L560.447,642c.759,1.315,1.211,2.209,1.211,2.209L577.026,654.3C558.507,660.3,564.27,673.747,564.27,673.747Z" transform="translate(-112.261 -54.305)" opacity="0.1"/>
    <path id="Path_222" data-name="Path 222" d="M533.35,575.35l-4.563,2.641s-5.522,17.53-4.082,29.056c0,0-4.322,16.569-2.64,19.21,0,0-2.161,8.884,8.885,16.808s34.1,26.174,34.1,26.174-5.763-13.447,12.727-19.45L562.4,639.7s-5.157-10.24-10.085-12.487c0,0-3.842-3.842-1.44-6.483s4.322-5.523,4.322-8.165.96-15.128.96-15.128l2.882-13.447Z" transform="translate(-112.077 -51.717)" fill="#eaeaf2"/>
    <path id="Path_223" data-name="Path 223" d="M606.188,563.3h-9.365a1.3,1.3,0,0,1-.154-.173l.154-.788,1.2-3.112,8.049,3.112Z" transform="translate(-115.04 -51.08)" opacity="0.1"/>
    <path id="Path_224" data-name="Path 224" d="M609.15,546.54s-8.126,6.782-12.39,0c0,0-3.842,11.469,0,15.311h11.525S614.327,551.4,609.15,546.54Z" transform="translate(-114.976 -50.579)" fill="#bc8487"/>
    <path id="Path_225" data-name="Path 225" d="M620.5,523.35l12.1,3.122s-11.468,29.775-13.995,29.775l-14.522-6.964Z" transform="translate(-115.333 -49.663)" opacity="0.1"/>
    <path id="Path_226" data-name="Path 226" d="M622.982,527.139l-19.393,20.555-.538.576-.7-.413L619.3,522l.413.682A31.676,31.676,0,0,0,622.982,527.139Z" transform="translate(-115.264 -49.61)" opacity="0.1"/>
    <path id="Path_227" data-name="Path 227" d="M619.5,522.35l12.1,3.122S620.13,555.247,617.6,555.247l-14.523-6.964Z" transform="translate(-115.293 -49.624)" fill="#eaeaf2"/>
    <path id="Path_228" data-name="Path 228" d="M579.319,519.91l-10.489,3.3s10.325,31.216,13.207,32.9l18.729-6.963Z" transform="translate(-113.94 -49.527)" opacity="0.1"/>
    <path id="Path_229" data-name="Path 229" d="M602.656,547.559l-.538.576s-25.213-14.648-23.292-18.73c.961-2.094,1.528-6.454,1.825-10.209v-.586Z" transform="translate(-114.331 -49.476)" opacity="0.1"/>
    <path id="Path_230" data-name="Path 230" d="M580.319,518.91l-10.489,3.305s10.326,31.216,13.207,32.9l18.73-6.964Z" transform="translate(-113.979 -49.487)" fill="#eaeaf2"/>
    <path id="Path_231" data-name="Path 231" d="M554.74,571.967s6.32,1.124,6.2,7.684,2.6-8.481,2.6-8.481Z" transform="translate(-113.384 -51.552)" opacity="0.1"/>
    <path id="Path_232" data-name="Path 232" d="M556.208,593s-1.757,9.923,0,18.893,1.6,12.006,2.968,12.487S556.208,593,556.208,593Z" transform="translate(-113.41 -52.414)" opacity="0.1"/>
    <path id="Path_233" data-name="Path 233" d="M640.115,592a3.477,3.477,0,0,0-2.882,4.486C638.041,600.5,640.115,592,640.115,592Z" transform="translate(-116.636 -52.375)" opacity="0.1"/>
    <path id="Path_234" data-name="Path 234" d="M525.91,626.982s20.584-1.758,24.013,1.921S525.91,626.982,525.91,626.982Z" transform="translate(-112.244 -53.74)" opacity="0.1"/>
    <path id="Path_235" data-name="Path 235" d="M650.24,628.424s15.051-1.854,18.576.711" transform="translate(-117.155 -53.788)" opacity="0.1"/>
    <path id="Path_236" data-name="Path 236" d="M656.58,631s8.962.318,11.046,1.441" transform="translate(-117.407 -53.915)" opacity="0.1"/>
    <path id="Path_237" data-name="Path 237" d="M658.41,634.348s8.165-.317,9.289.96" transform="translate(-117.479 -54.046)" opacity="0.1"/>
    <path id="Path_238" data-name="Path 238" d="M538.54,681.35s6.992,3.64,6.281,7.357S538.54,681.35,538.54,681.35Z" transform="translate(-112.743 -55.905)" opacity="0.1"/>
    <path id="Path_239" data-name="Path 239" d="M532.24,683.19s10.671,13.841,9.221,18.4S532.24,683.19,532.24,683.19Z" transform="translate(-112.494 -55.978)" opacity="0.1"/>
    <path id="Path_240" data-name="Path 240" d="M651.119,685.58s-5.283,4.351-5.139,7.944" transform="translate(-116.988 -56.072)" opacity="0.1"/>
    <path id="Path_241" data-name="Path 241" d="M524.33,774.85s0,4.082,7.559,10.086" transform="translate(-112.182 -59.598)" opacity="0.1"/>
    <path id="Path_242" data-name="Path 242" d="M662.9,764.85s-.807,8.491-8.164,12.89" transform="translate(-117.334 -59.203)" opacity="0.1"/>
    <g id="Group_53" data-name="Group 53" transform="translate(450.162 415.443)" opacity="0.1">
      <path id="Path_243" data-name="Path 243" d="M568.821,464.727c0-.663-.116-1.345-.173-2.017a19.328,19.328,0,0,0,.134,4.4A18.089,18.089,0,0,0,568.821,464.727Z" transform="translate(-564.092 -462.711)"/>
      <path id="Path_244" data-name="Path 244" d="M567.109,492.418c.144-2.785-2.277-5.023-2.978-7.684a2.633,2.633,0,0,1-.078-.394,7.408,7.408,0,0,0,.078,3.275c.567,2.2,2.276,4.082,2.814,6.215C566.994,493.331,567.089,492.879,567.109,492.418Z" transform="translate(-563.907 -463.565)"/>
      <path id="Path_245" data-name="Path 245" d="M634.411,480.2a12.813,12.813,0,0,1-3.428,4.217c-2.239,2.065-5.015,4.284-7.982,3.612-4.409-.96-5.927-7.684-10.421-8.145s-7.482,5.763-12.025,5.638c-1.921-.048-3.65-1.306-5.417-2.18-3.093-1.528-8.174-2.46-11.526-1.307-5.023,1.719-6.724,6.368-9.951,10.066a16.213,16.213,0,0,1-4.226,3.438,2.044,2.044,0,0,1-1.086.336,1.336,1.336,0,0,1-1.076-.864v.067a14.858,14.858,0,0,0-.182,2.151,1.586,1.586,0,0,0,1.259,1.528,2.04,2.04,0,0,0,1.086-.336,16.215,16.215,0,0,0,4.226-3.438c3.246-3.7,4.927-8.347,9.951-10.066,3.391-1.153,8.471-.221,11.526,1.306,1.767.874,3.458,2.132,5.417,2.18,4.543.115,7.511-6.138,12.025-5.638s6.013,7.146,10.421,8.145c2.968.672,5.763-1.546,7.981-3.612a12.8,12.8,0,0,0,3.429-4.216,8.109,8.109,0,0,0,.414-4.361A6.8,6.8,0,0,1,634.411,480.2Z" transform="translate(-564.032 -463.343)"/>
    </g>
    <path id="Path_246" data-name="Path 246" d="M500,814.454s7.848-2.42,11.1,2.171" transform="translate(-111.221 -61.138)" opacity="0.1"/>
    <path id="Path_247" data-name="Path 247" d="M688.756,815.477s-12.995-.759-12.486,2.756" transform="translate(-118.184 -61.201)" opacity="0.1"/>
    <ellipse id="Ellipse_16" data-name="Ellipse 16" cx="25.866" cy="4.37" rx="25.866" ry="4.37" transform="translate(804.165 738.419)" fill="#4285f4" opacity="0.1"/>
    <ellipse id="Ellipse_17" data-name="Ellipse 17" cx="25.866" cy="4.37" rx="25.866" ry="4.37" transform="translate(61.625 774.284)" fill="#4285f4" opacity="0.1"/>
    <ellipse id="Ellipse_18" data-name="Ellipse 18" cx="25.866" cy="4.37" rx="25.866" ry="4.37" transform="translate(161.68 797.729)" fill="#4285f4" opacity="0.1"/>
    <ellipse id="Ellipse_19" data-name="Ellipse 19" cx="38.621" cy="6.531" rx="38.621" ry="6.531" transform="translate(734.788 783.091)" fill="#4285f4"/>
    <path id="Path_248" data-name="Path 248" d="M915.61,840.428a11.25,11.25,0,0,0,3.68-5.561c.479-2.2-.462-4.8-2.574-5.657-2.363-.9-4.889.74-6.8,2.391s-4.111,3.544-6.618,3.189a10.068,10.068,0,0,0,3.121-9.422,3.96,3.96,0,0,0-.875-1.921c-1.305-1.4-3.688-.808-5.254.307-4.994,3.505-6.387,10.3-6.415,16.4-.51-2.2-.078-4.494-.1-6.724s-.624-4.8-2.537-5.984a7.638,7.638,0,0,0-3.842-.9c-2.248-.086-4.745.144-6.281,1.787-1.921,2.036-1.4,5.455.25,7.684s4.177,3.659,6.5,5.206a14.405,14.405,0,0,1,4.639,4.428,3.984,3.984,0,0,1,.346.8h14.032A39.375,39.375,0,0,0,915.61,840.428Z" transform="translate(-126.228 -61.486)" fill="#4285f4"/>
    <path id="Path_249" data-name="Path 249" d="M291.283,753.45s5.283,6.906-2.43,17.289-14.072,19.21-11.526,25.713c0,0,11.641-19.354,21.131-19.623S301.7,765.091,291.283,753.45Z" transform="translate(-102.402 -58.753)" fill="#4285f4"/>
    <path id="Path_250" data-name="Path 250" d="M291.3,753.45a8.465,8.465,0,0,1,1.076,2.171c9.24,10.853,14.167,20.987,5.283,21.237-8.27.24-18.192,15.031-20.574,18.768.077.287.173.566.279.855,0,0,11.641-19.354,21.131-19.623S301.717,765.091,291.3,753.45Z" transform="translate(-102.414 -58.753)" opacity="0.1"/>
    <path id="Path_251" data-name="Path 251" d="M302.04,762.546c0,2.43-.269,4.4-.605,4.4s-.6-1.969-.6-4.4.336-1.287.672-1.287S302.04,760.116,302.04,762.546Z" transform="translate(-103.353 -59.051)" fill="#ffd037"/>
    <path id="Path_252" data-name="Path 252" d="M305.428,765.562c-2.132,1.162-4,1.864-4.149,1.566s1.431-1.479,3.563-2.641,1.3-.317,1.451,0S307.561,764.4,305.428,765.562Z" transform="translate(-103.37 -59.166)" fill="#ffd037"/>
    <path id="Path_253" data-name="Path 253" d="M262.382,753.45s-5.283,6.906,2.43,17.289,14.071,19.21,11.526,25.713c0,0-11.631-19.354-21.131-19.623S251.942,765.091,262.382,753.45Z" transform="translate(-101.365 -58.753)" fill="#4285f4"/>
    <path id="Path_254" data-name="Path 254" d="M262.381,753.45a8.65,8.65,0,0,0-1.085,2.171c-9.24,10.853-14.158,20.987-5.283,21.237,8.279.24,18.2,15.031,20.583,18.768a7.458,7.458,0,0,1-.288.855s-11.631-19.354-21.131-19.623S251.941,765.091,262.381,753.45Z" transform="translate(-101.364 -58.753)" opacity="0.1"/>
    <path id="Path_255" data-name="Path 255" d="M252.65,762.546c0,2.43.278,4.4.615,4.4s.605-1.969.605-4.4-.336-1.287-.672-1.287S252.65,760.116,252.65,762.546Z" transform="translate(-101.449 -59.051)" fill="#ffd037"/>
    <path id="Path_256" data-name="Path 256" d="M249.1,765.562c2.132,1.162,3.986,1.864,4.149,1.566s-1.441-1.479-3.573-2.641-1.287-.317-1.45,0S246.964,764.4,249.1,765.562Z" transform="translate(-101.257 -59.166)" fill="#ffd037"/>
    <path id="Path_257" data-name="Path 257" d="M254.4,796.982s14.753-.461,19.21-3.621,22.7-6.954,23.792-1.873,22.178,25.252,5.523,25.385-38.708-2.593-43.145-5.292S254.4,796.982,254.4,796.982Z" transform="translate(-101.518 -60.158)" fill="#a8a8a8"/>
    <path id="Path_258" data-name="Path 258" d="M303.212,815.434c-16.655.134-38.708-2.593-43.145-5.292-3.372-2.065-4.726-9.451-5.177-12.852h-.49s.96,11.892,5.369,14.6,26.491,5.427,43.145,5.292c4.8,0,6.464-1.748,6.378-4.284C308.62,814.454,306.785,815.405,303.212,815.434Z" transform="translate(-101.518 -60.485)" opacity="0.2"/>
  </g>
</svg>
